<svg width="168" height="169" viewBox="0 0 168 169" fill="none" xmlns="http://www.w3.org/2000/svg">
<path d="M6.05733 71.9976C5.38437 67.4247 6.44384 62.7147 9.00285 58.9031C11.5624 55.0907 15.4125 52.4896 19.7062 51.6718L124.936 31.6305L123.162 19.5845C122.772 16.9418 121.817 14.4432 120.37 12.2817C118.924 10.1202 117.025 8.35356 114.821 7.11827C112.616 5.88297 110.164 5.21206 107.655 5.15733C105.146 5.1026 102.646 5.66552 100.349 6.80263L15.0347 49.051C11.731 50.6864 9.0022 53.4316 7.2725 56.8598C5.54279 60.288 4.90908 64.2072 5.46988 68.008L6.05733 71.9976Z" fill="#E84341"/>
<path fill-rule="evenodd" clip-rule="evenodd" d="M36.2215 163.767L149.546 142.185C153.84 141.367 157.69 138.766 160.249 134.953C162.809 131.141 163.868 126.43 163.194 121.856L151.761 44.2513C151.087 39.6775 148.735 35.6159 145.222 32.9599C141.71 30.304 137.324 29.2713 133.031 30.0891L124.936 31.6305L19.7062 51.6718C15.4125 52.4896 11.5624 55.0907 9.00285 58.9031C6.44384 62.7147 5.38437 67.4247 6.05733 71.9976L6.05777 72.0006L17.4914 149.605C18.1653 154.179 20.5172 158.24 24.0298 160.896C27.5423 163.552 31.9278 164.585 36.2215 163.767ZM118.639 93.5844C119.517 94.2484 120.614 94.5066 121.687 94.3022C122.761 94.0977 123.723 93.4474 124.363 92.4944C125.003 91.5413 125.268 90.3634 125.099 89.22C124.931 88.0766 124.343 87.0611 123.465 86.3972C122.587 85.7332 121.49 85.475 120.417 85.6794C119.343 85.8839 118.381 86.5342 117.741 87.4873C117.101 88.4403 116.836 89.6182 117.005 90.7616C117.173 91.9051 117.761 92.9205 118.639 93.5844Z" fill="#E84341"/>
<path d="M121.687 94.3022C120.614 94.5066 119.517 94.2484 118.639 93.5844C117.761 92.9205 117.173 91.9051 117.005 90.7616C116.836 89.6182 117.101 88.4403 117.741 87.4873C118.381 86.5342 119.343 85.8839 120.417 85.6794C121.49 85.475 122.587 85.7332 123.465 86.3972C124.343 87.0611 124.931 88.0766 125.099 89.22C125.268 90.3634 125.003 91.5413 124.363 92.4944C123.723 93.4474 122.761 94.0977 121.687 94.3022Z" fill="#E84341"/>
<path d="M19.7062 51.6718C15.4125 52.4896 11.5624 55.0907 9.00285 58.9031C6.44384 62.7147 5.38437 67.4247 6.05733 71.9976M19.7062 51.6718L133.031 30.0891M19.7062 51.6718L124.936 31.6305M133.031 30.0891C137.324 29.2713 141.71 30.304 145.222 32.9599C148.735 35.6159 151.087 39.6775 151.761 44.2513L163.194 121.856C163.868 126.43 162.809 131.141 160.249 134.953C157.69 138.766 153.84 141.367 149.546 142.185L36.2215 163.767C31.9278 164.585 27.5423 163.552 24.0298 160.896C20.5172 158.24 18.1653 154.179 17.4914 149.605L6.05777 72.0006L6.05733 71.9976M133.031 30.0891L124.936 31.6305M124.936 31.6305L123.162 19.5845C122.772 16.9418 121.817 14.4432 120.37 12.2817C118.924 10.1202 117.025 8.35356 114.821 7.11827C112.616 5.88297 110.164 5.21206 107.655 5.15733C105.146 5.1026 102.646 5.66552 100.349 6.80263L15.0347 49.051C11.731 50.6864 9.0022 53.4316 7.2725 56.8598C5.54279 60.288 4.90908 64.2072 5.46988 68.008L6.05733 71.9976M121.687 94.3022C120.614 94.5066 119.517 94.2484 118.639 93.5844C117.761 92.9205 117.173 91.9051 117.005 90.7616C116.836 89.6182 117.101 88.4403 117.741 87.4873C118.381 86.5342 119.343 85.8839 120.417 85.6794C121.49 85.475 122.587 85.7332 123.465 86.3972C124.343 87.0611 124.931 88.0765 125.099 89.22C125.268 90.3634 125.003 91.5413 124.363 92.4944C123.723 93.4474 122.761 94.0977 121.687 94.3022Z" stroke="black" stroke-width="9"/>
</svg>
