<svg width="303.000000" height="316.000000" viewBox="0 0 303 316" fill="none" xmlns="http://www.w3.org/2000/svg" xmlns:xlink="http://www.w3.org/1999/xlink">
	<desc>
			Created with Pixso.
	</desc>
	<defs/>
	<path id="Vector" d="M281.5 116.08C275.57 123.08 267.47 127.91 258.65 129.72C249.83 131.52 240.86 130.17 233.35 125.91C231.31 124.71 228.86 124.27 226.42 124.67C223.98 125.07 221.7 126.28 219.95 128.11L124.86 227.21C123.11 229.03 122 231.35 121.71 233.79C121.43 236.22 121.99 238.63 123.3 240.6C126.45 245.51 128.31 251.2 128.71 257.17C129.12 263.13 128.05 269.21 125.61 274.87C123.17 280.53 119.43 285.62 114.71 289.68C109.98 293.75 104.41 296.68 98.47 298.23C92.54 299.78 86.41 299.89 80.61 298.57C74.81 297.24 69.52 294.51 65.19 290.61C60.85 286.71 57.6 281.76 55.71 276.18C53.82 270.6 53.35 264.55 54.34 258.56C48.35 259.83 42.24 259.66 36.53 258.06C30.82 256.46 25.68 253.48 21.55 249.37C17.42 245.26 14.41 240.15 12.79 234.46C11.18 228.78 10.99 222.7 12.26 216.74C13.53 210.78 16.21 205.12 20.07 200.23C23.93 195.35 28.86 191.39 34.44 188.7C40.02 186 46.09 184.65 52.11 184.76C58.14 184.87 63.95 186.44 69.05 189.32C71.1 190.52 73.54 190.96 75.98 190.56C78.42 190.16 80.7 188.95 82.45 187.13L177.55 88.03C179.3 86.2 180.41 83.88 180.69 81.45C180.97 79.01 180.42 76.61 179.11 74.64C175.95 69.72 174.09 64.04 173.69 58.07C173.29 52.1 174.35 46.02 176.79 40.36C179.23 34.7 182.97 29.62 187.7 25.55C192.42 21.48 197.99 18.55 203.93 17C209.87 15.46 216 15.34 221.79 16.67C227.59 17.99 232.88 20.72 237.22 24.62C241.56 28.52 244.81 33.47 246.7 39.05C248.59 44.63 249.06 50.68 248.07 56.67C255.69 55.04 263.47 55.76 270.36 58.73C277.24 61.69 282.9 66.77 286.55 73.26C290.2 79.75 291.68 87.35 290.78 95.01C289.87 102.67 286.63 110.03 281.5 116.08Z" fill="#FFFFFF" fill-opacity="1.000000" fill-rule="nonzero"/>
	<path id="Vector" d="M290.83 60.28C282.93 51.17 271.54 45.75 259.11 45.17C258.39 38.06 256.05 31.32 252.28 25.44C248.51 19.56 243.4 14.7 237.32 11.2C231.25 7.71 224.36 5.68 217.19 5.26C210.01 4.85 202.72 6.05 195.86 8.8C189 11.54 182.74 15.75 177.56 21.11C172.37 26.47 168.39 32.84 165.9 39.76C163.42 46.67 162.49 53.95 163.2 61.06C163.9 68.17 166.22 74.91 169.98 80.8C169.99 80.84 169.98 80.87 169.98 80.91L74.98 179.98L74.84 179.98C68.73 176.55 61.83 174.58 54.64 174.23C47.46 173.87 40.17 175.14 33.34 177.95C26.5 180.75 20.27 185.01 15.13 190.41C9.99 195.81 6.06 202.22 3.64 209.15C1.21 216.08 0.35 223.37 1.12 230.46C1.89 237.56 4.27 244.28 8.08 250.13C11.89 255.99 17.04 260.82 23.14 264.27C29.24 267.72 36.14 269.71 43.32 270.08C44.05 277.18 46.38 283.92 50.15 289.8C53.93 295.68 59.04 300.55 65.11 304.04C71.19 307.53 78.07 309.56 85.25 309.98C92.43 310.4 99.72 309.19 106.58 306.45C113.44 303.7 119.69 299.5 124.88 294.14C130.06 288.78 134.05 282.4 136.53 275.49C139.02 268.57 139.94 261.29 139.24 254.18C138.53 247.08 136.21 240.33 132.46 234.44C132.45 234.41 132.45 234.37 132.46 234.34L227.51 135.26L227.65 135.26C237.31 140.78 248.89 142.55 260.27 140.23C271.66 137.91 282.11 131.66 289.74 122.61C297.38 113.56 301.69 102.31 301.9 90.88C302.11 79.44 298.2 68.59 290.89 60.27L290.83 60.28ZM273.55 109.51C269.32 114.52 263.53 117.98 257.22 119.27C250.92 120.56 244.51 119.6 239.14 116.56C235.06 114.2 230.19 113.36 225.35 114.17C220.51 114.98 215.98 117.39 212.5 121.01L117.38 220.14C113.92 223.77 111.72 228.38 111.15 233.22C110.58 238.06 111.68 242.83 114.25 246.76C116.5 250.27 117.82 254.33 118.1 258.59C118.38 262.85 117.62 267.19 115.87 271.23C114.13 275.27 111.45 278.9 108.08 281.8C104.7 284.7 100.73 286.79 96.49 287.89C92.25 288.99 87.88 289.07 83.74 288.13C79.6 287.18 75.82 285.24 72.73 282.45C69.63 279.67 67.31 276.14 65.95 272.16C64.6 268.18 64.26 263.86 64.96 259.58C65.22 258.05 65.14 256.5 64.73 255.05C64.32 253.59 63.6 252.26 62.6 251.15C61.61 250.04 60.37 249.17 58.97 248.61C57.57 248.05 56.04 247.81 54.49 247.9C53.94 247.94 53.39 248.01 52.84 248.13C48.58 249.03 44.22 248.9 40.15 247.75C36.09 246.6 32.42 244.47 29.48 241.54C26.53 238.61 24.39 234.97 23.23 230.92C22.08 226.87 21.94 222.54 22.84 218.29C23.73 214.03 25.64 209.99 28.38 206.51C31.13 203.02 34.64 200.19 38.61 198.25C42.58 196.32 46.9 195.34 51.2 195.4C55.5 195.46 59.64 196.56 63.29 198.59C67.38 200.95 72.24 201.79 77.08 200.98C81.93 200.17 86.46 197.76 89.93 194.14L185.06 95.01C188.51 91.39 190.7 86.79 191.26 81.96C191.83 77.13 190.75 72.37 188.18 68.44C185.94 64.93 184.62 60.87 184.34 56.61C184.06 52.35 184.82 48.01 186.57 43.97C188.31 39.93 190.98 36.31 194.36 33.41C197.73 30.51 201.71 28.42 205.95 27.31C210.19 26.21 214.56 26.13 218.7 27.08C222.83 28.02 226.61 29.97 229.71 32.75C232.81 35.53 235.13 39.06 236.48 43.04C237.83 47.03 238.17 51.34 237.47 55.62C237.2 57.29 237.32 58.98 237.82 60.54C238.33 62.11 239.21 63.5 240.39 64.62C241.57 65.74 243.02 66.54 244.62 66.97C246.22 67.39 247.92 67.43 249.59 67.08C255.05 65.88 260.63 66.38 265.57 68.5C270.52 70.62 274.57 74.25 277.19 78.91C279.81 83.56 280.86 89.01 280.2 94.5C279.54 99.99 277.2 105.26 273.5 109.58L273.55 109.51Z" fill="#000000" fill-opacity="1.000000" fill-rule="nonzero"/>
</svg>
