<svg width="278.000000" height="175.000000" viewBox="0 0 278 175" fill="none" xmlns="http://www.w3.org/2000/svg" xmlns:xlink="http://www.w3.org/1999/xlink">
	<desc>
			Created with Pixso.
	</desc>
	<defs/>
	<path id="Vector" d="M167.16 26.21C138.04 17.13 110.82 11.61 90.75 10.01C80.71 9.21 72.44 9.43 66.92 10.49C64.17 11.02 62.13 11.77 60.98 12.45C59.83 13.13 59.68 13.52 59.63 13.7C59.57 13.87 59.47 14.28 60.03 15.49C60.59 16.7 61.84 18.48 63.81 20.48C67.75 24.48 74.43 29.37 83.15 34.41C85.63 35.85 88.3 37.31 91.11 38.78C94.17 37.43 102.72 38 115.21 40.38C127.7 42.75 143.3 46.78 159.2 51.73C175.1 56.69 190.23 62.24 201.87 67.38C213.5 72.52 220.86 76.92 222.63 79.76C225.76 80.15 228.77 80.46 231.63 80.69C241.67 81.49 249.94 81.27 255.46 80.21C258.21 79.68 260.25 78.93 261.4 78.25C262.55 77.57 262.7 77.18 262.75 77.01C262.81 76.83 262.91 76.43 262.35 75.22C261.79 74.01 260.54 72.23 258.57 70.22C254.64 66.22 247.95 61.34 239.24 56.29C221.81 46.2 196.28 35.28 167.16 26.21ZM52.02 22.54L10.73 75.63L10.69 75.68C9.52 77.11 9.37 77.91 9.62 79.39C9.87 80.87 10.93 83.13 13.17 85.78C17.64 91.08 26.44 97.62 38.06 104.22C61.3 117.41 95.75 131.21 131.01 142.2C166.26 153.19 202.45 161.4 229.07 163.75C242.38 164.93 253.34 164.54 260.03 162.72C263.37 161.81 265.53 160.56 266.58 159.48C267.63 158.41 267.95 157.66 267.81 155.82L267.8 155.76L264 88.61C262 89.43 259.82 90.03 257.43 90.49C250.36 91.85 241.41 91.97 230.8 91.12C209.59 89.44 181.84 83.75 152.11 74.49C122.38 65.22 96.32 54.13 77.9 43.47C68.69 38.13 61.4 32.95 56.35 27.81C54.64 26.08 53.19 24.35 52.02 22.54Z" fill="#E84341" fill-opacity="1.000000" fill-rule="nonzero"/>
	<path id="Vector" d="M170.13 16.66Q125.49 2.74 91.54 0.04Q75.11 -1.26 65.04 0.67Q59.44 1.75 55.89 3.85Q54.33 4.77 53.15 5.88L52.76 5.28L2.83 69.5L2.83 69.5Q0.44 72.55 -0.21 75.94Q-0.69 78.41 -0.24 81.06Q0.67 86.48 5.52 92.23Q13.65 101.86 33.12 112.92Q69.27 133.43 128.03 151.74Q186.79 170.06 228.19 173.71Q250.5 175.68 262.66 172.37Q269.92 170.39 273.75 166.45Q275.8 164.35 276.82 161.82Q278.06 158.75 277.78 155.06L273.18 73.98L272.52 74.25Q272.19 72.67 271.43 71.02Q269.7 67.28 265.7 63.21Q258.51 55.9 244.25 47.64Q214.78 30.57 170.13 16.66ZM196.25 75.84Q179.25 68.46 156.23 61.28Q133.21 54.11 115.03 50.53Q133.15 58.1 155.08 64.94Q177.03 71.78 196.25 75.84ZM45.62 30.76L52.02 22.54C53.19 24.35 54.64 26.08 56.35 27.81C57.11 28.59 57.92 29.36 58.78 30.13C63.63 34.51 70.08 38.93 77.9 43.47C96.32 54.13 122.38 65.22 152.11 74.49C181.84 83.75 209.59 89.44 230.8 91.12C239.82 91.84 247.63 91.86 254.12 91.02C255.26 90.87 256.37 90.69 257.43 90.49C259.82 90.03 262 89.43 264 88.61L264.59 99.01L267.8 155.76L267.81 155.82C267.95 157.66 267.63 158.41 266.58 159.48C265.53 160.56 263.37 161.81 260.03 162.72C253.34 164.54 242.38 164.93 229.07 163.75C202.45 161.4 166.26 153.19 131.01 142.2C95.75 131.21 61.3 117.41 38.06 104.22C26.44 97.62 17.64 91.08 13.17 85.78C10.93 83.13 9.87 80.87 9.62 79.39C9.37 77.91 9.52 77.11 10.69 75.68L10.73 75.63L45.62 30.76ZM167.16 26.21C138.04 17.13 110.82 11.61 90.75 10.01C80.71 9.21 72.44 9.43 66.92 10.49C64.17 11.02 62.13 11.77 60.98 12.45C59.83 13.13 59.68 13.52 59.63 13.7C59.57 13.87 59.47 14.28 60.03 15.49C60.59 16.7 61.84 18.48 63.81 20.48C67.75 24.48 74.43 29.37 83.15 34.41C85.63 35.85 88.3 37.31 91.11 38.78C94.17 37.43 102.72 38 115.21 40.38C127.7 42.75 143.3 46.78 159.2 51.73C175.1 56.69 190.23 62.24 201.87 67.38C213.5 72.52 220.86 76.92 222.63 79.76C225.76 80.15 228.77 80.46 231.63 80.69C241.67 81.49 249.94 81.27 255.46 80.21C258.21 79.68 260.25 78.93 261.4 78.25C262.55 77.57 262.7 77.18 262.75 77.01C262.81 76.83 262.91 76.43 262.35 75.22C261.79 74.01 260.54 72.23 258.57 70.22C254.64 66.22 247.95 61.34 239.24 56.29C221.81 46.2 196.28 35.28 167.16 26.21Z" fill="#000000" fill-opacity="1.000000" fill-rule="evenodd"/>
</svg>
