<svg width="26" height="26" viewBox="0 0 26 26" fill="none" xmlns="http://www.w3.org/2000/svg">
<path d="M24 0.5H8C7.60218 0.5 7.22064 0.658035 6.93934 0.93934C6.65804 1.22064 6.5 1.60218 6.5 2V6.5H2C1.60218 6.5 1.22064 6.65804 0.93934 6.93934C0.658035 7.22064 0.5 7.60218 0.5 8V24C0.5 24.3978 0.658035 24.7794 0.93934 25.0607C1.22064 25.342 1.60218 25.5 2 25.5H18C18.3978 25.5 18.7794 25.342 19.0607 25.0607C19.342 24.7794 19.5 24.3978 19.5 24V19.5H24C24.3978 19.5 24.7794 19.342 25.0607 19.0607C25.342 18.7794 25.5 18.3978 25.5 18V2C25.5 1.60218 25.342 1.22064 25.0607 0.93934C24.7794 0.658035 24.3978 0.5 24 0.5ZM16.5 22.5H3.5V9.5H16.5V22.5ZM22.5 16.5H19.5V8C19.5 7.60218 19.342 7.22064 19.0607 6.93934C18.7794 6.65804 18.3978 6.5 18 6.5H9.5V3.5H22.5V16.5Z" fill="black"/>
</svg>
