<svg width="887" height="878" viewBox="0 0 887 878" fill="none" xmlns="http://www.w3.org/2000/svg">
<g style="mix-blend-mode:overlay">
<path fill-rule="evenodd" clip-rule="evenodd" d="M196.65 70.826L436.302 419.031L381.518 1.83816C383.662 1.55034 385.81 1.27802 387.962 1.02131L487.862 0.442497C498.441 1.57556 509.052 3.09311 519.68 5.00541L456.876 408.801L706.66 85.7172C729.689 102.829 750.895 122.052 770.049 143.041L503.503 418.166L869.558 320.758C882.661 366.227 888.637 414.25 886.447 463.265L497.032 450.38L854.653 610.372C842.898 639.688 828.209 667.263 811.01 692.815L492.41 473.39L660.49 832.009C624.925 852.154 586.54 867.473 546.368 877.279L470.305 488.1L330.929 876.066C314.327 871.856 298.163 866.751 282.48 860.814L267.482 854.308L442.693 482.554L87.0701 715.314C53.6858 671.756 28.3734 622.169 12.7974 569.056L427.983 460.449L0.387892 374.561C1.36053 368.412 2.46458 362.255 3.70206 356.094C8.31914 333.108 14.627 310.892 22.4702 289.55L432.605 437.439L113.291 141.286C138.157 114.419 166.187 90.7704 196.65 70.826Z" fill="url(#paint0_radial_2009_51)" fill-opacity="0.2"/>
</g>
<defs>
<radialGradient id="paint0_radial_2009_51" cx="0" cy="0" r="1" gradientUnits="userSpaceOnUse" gradientTransform="translate(438.351 443.156) rotate(101.357) scale(445.587 443.282)">
<stop offset="0.53125" stop-color="#F9F9F9"/>
<stop offset="1" stop-color="white" stop-opacity="0"/>
</radialGradient>
</defs>
</svg>
