<svg width="25" height="25" viewBox="0 0 25 25" fill="none" xmlns="http://www.w3.org/2000/svg">
<path d="M5.22876 3.21146C4.30577 3.21146 3.55668 3.96056 3.55668 4.88355V20.2667C3.55668 21.1897 4.30577 21.9388 5.22876 21.9388H20.6119C21.5349 21.9388 22.284 21.1897 22.284 20.2667V15.2505C22.284 14.8957 22.4249 14.5554 22.6758 14.3046C22.9267 14.0537 23.2669 13.9128 23.6217 13.9128C23.9764 13.9128 24.3167 14.0537 24.5675 14.3046C24.8184 14.5554 24.9593 14.8957 24.9593 15.2505V20.2667C24.9593 21.4197 24.5013 22.5255 23.686 23.3408C22.8707 24.1561 21.7649 24.6141 20.6119 24.6141H5.22876C4.07576 24.6141 2.96997 24.1561 2.15468 23.3408C1.33938 22.5255 0.881348 21.4197 0.881348 20.2667V4.88355C0.881348 3.73054 1.33938 2.62476 2.15468 1.80946C2.96997 0.994162 4.07576 0.536133 5.22876 0.536133H10.245C10.5998 0.536133 10.94 0.677065 11.1909 0.927926C11.4417 1.17879 11.5827 1.51903 11.5827 1.8738C11.5827 2.22857 11.4417 2.56881 11.1909 2.81967C10.94 3.07053 10.5998 3.21146 10.245 3.21146H5.22876ZM15.5957 3.21146C15.2409 3.21146 14.9007 3.07053 14.6498 2.81967C14.3989 2.56881 14.258 2.22857 14.258 1.8738C14.258 1.51903 14.3989 1.17879 14.6498 0.927926C14.9007 0.677065 15.2409 0.536133 15.5957 0.536133H23.6217C23.9764 0.536133 24.3167 0.677065 24.5675 0.927926C24.8184 1.17879 24.9593 1.51903 24.9593 1.8738V9.89979C24.9593 10.2546 24.8184 10.5948 24.5675 10.8457C24.3167 11.0965 23.9764 11.2375 23.6217 11.2375C23.2669 11.2375 22.9267 11.0965 22.6758 10.8457C22.4249 10.5948 22.284 10.2546 22.284 9.89979V5.10292L16.5414 10.8455C16.2891 11.0892 15.9512 11.224 15.6005 11.221C15.2498 11.2179 14.9143 11.0772 14.6662 10.8292C14.4182 10.5812 14.2775 10.2457 14.2745 9.89498C14.2714 9.54425 14.4063 9.20635 14.6499 8.95406L20.3925 3.21146H15.5957Z" fill="white"/>
</svg>
