<svg width="250.000000" height="424.000000" viewBox="0 0 250 424" fill="none" xmlns="http://www.w3.org/2000/svg" xmlns:xlink="http://www.w3.org/1999/xlink">
	<desc>
			Created with Pixso.
	</desc>
	<defs/>
	<path id="$" d="M146.39 364.31L126.7 365.69L124.78 338.25C70.77 339.05 34.92 314.23 30.27 264.22L80.44 260.71C83.43 282.19 99.54 293.4 121.72 294.5L117.3 231.39L101.46 228.53C59.32 221.45 32.32 202.48 29.88 166.3C26.8 124.71 59.16 93.72 107.18 86.63L105.25 58.95L124.94 57.57L126.86 85.09C176.53 84.93 210.62 111.85 214.24 153.08L164.48 156.56C161.67 140.03 149.21 130.06 129.92 128.84L134.1 188.57L146.24 190.54C189.59 197.19 221.92 216.71 224.86 257.57C227.75 300 198.31 330.13 144.47 336.87L146.39 364.31ZM82.86 159.12C83.57 173.97 96.98 181.15 114.06 185.01L110.24 130.38C91.48 134.34 81.91 145.61 82.86 159.12ZM137.35 235.04L141.39 292.88C161.55 288.74 173.45 276.56 172.54 261.14C171.34 246.41 159.11 239.56 137.35 235.04Z" fill="#E84341" fill-opacity="1.000000" fill-rule="evenodd"/>
	<path id="$" d="M126.7 365.69L146.39 364.31L144.47 336.87C198.31 330.13 227.75 300 224.86 257.57C221.92 216.71 189.59 197.19 146.24 190.54L134.1 188.57L129.92 128.84C149.21 130.06 161.67 140.03 164.48 156.56L214.24 153.08C210.62 111.85 176.53 84.93 126.86 85.09L124.94 57.57L105.25 58.95L107.18 86.63C59.16 93.72 26.8 124.71 29.88 166.3C32.32 202.48 59.32 221.45 101.46 228.53L117.3 231.39L121.72 294.5C99.54 293.4 83.43 282.19 80.44 260.71L30.27 264.22C34.92 314.23 70.77 339.05 124.78 338.25L126.7 365.69ZM141.39 292.88L137.35 235.04C159.11 239.56 171.34 246.41 172.54 261.14C173.45 276.56 161.55 288.74 141.39 292.88ZM114.06 185.01C96.98 181.15 83.57 173.97 82.86 159.12C81.91 145.61 91.48 134.34 110.24 130.38L114.06 185.01Z" stroke="#000000" stroke-opacity="1.000000" stroke-width="9.000000"/>
</svg>
