<svg width="275.000000" height="277.000000" viewBox="0 0 275 277" fill="none" xmlns="http://www.w3.org/2000/svg" xmlns:xlink="http://www.w3.org/1999/xlink">
	<desc>
			Created with Pixso.
	</desc>
	<defs/>
	<path id="Vector" d="M50.3 43.05C63.83 34.62 86.05 43.57 99.99 63.28C113.88 82.87 114.39 105.6 100.92 114.15C87.56 122.66 65.22 113.76 51.16 94.1C37.14 74.57 36.88 51.73 50.3 43.05ZM137.82 4.47C153.4 0.36 169.95 16.02 175.15 39.44C180.04 63.15 171.65 85.59 156.24 89.76C140.71 93.99 124.29 78.28 119.33 54.75C114.2 31.15 122.59 8.72 137.82 4.47ZM9.47 127.88C20.8 115.77 44.54 118.23 62.76 132.72C80.53 147.84 86.24 169.43 75.04 181.49C63.83 193.55 40.26 191.16 22.18 176.32C4.1 161.48 -1.42 139.65 9.47 127.88ZM229.79 30.75C245.83 30.66 258.2 49.46 256.95 72.83C255.69 96.19 241.56 115.2 225.1 115.34C208.64 115.48 196.56 96.68 197.4 73.36C199.01 50.14 213.21 30.95 229.79 30.75ZM267.12 170.91C272.64 182.13 269.4 198.66 260.97 208.05C243.45 227.68 208.39 218.44 184.04 229.18C159.68 239.92 142.97 273 116.66 271.67C101.79 271.1 86.38 259.01 82.18 245.17C76.4 226.07 94.02 206.68 101.16 187.7C110.86 162.94 108.9 125.31 133.5 114.46C157.98 103.67 184.94 129.7 209.24 140.06C229.36 148.91 257.53 151.46 267.12 170.91Z" fill="#E84341" fill-opacity="1.000000" fill-rule="nonzero"/>
	<path id="Vector" d="M99.99 63.28C113.88 82.87 114.39 105.6 100.92 114.15C87.56 122.66 65.22 113.76 51.16 94.1C37.14 74.57 36.88 51.73 50.3 43.05C63.83 34.62 86.05 43.57 99.99 63.28ZM175.15 39.44C180.04 63.15 171.65 85.59 156.24 89.76C140.71 93.99 124.29 78.28 119.33 54.75C114.2 31.15 122.59 8.72 137.82 4.47C153.4 0.36 169.95 16.02 175.15 39.44ZM62.76 132.72C80.53 147.84 86.24 169.43 75.04 181.49C63.83 193.55 40.26 191.16 22.18 176.32C4.1 161.48 -1.42 139.65 9.47 127.88C20.8 115.77 44.54 118.23 62.76 132.72ZM256.95 72.83C255.69 96.19 241.56 115.2 225.1 115.34C208.64 115.48 196.56 96.68 197.4 73.36C199.01 50.14 213.21 30.95 229.79 30.75C245.83 30.66 258.2 49.46 256.95 72.83ZM260.97 208.05C243.45 227.68 208.39 218.44 184.04 229.18C159.68 239.92 142.97 273 116.66 271.67C101.79 271.1 86.38 259.01 82.18 245.17C76.4 226.07 94.02 206.68 101.16 187.7C110.86 162.94 108.9 125.31 133.5 114.46C157.98 103.67 184.94 129.7 209.24 140.06C229.36 148.91 257.53 151.46 267.12 170.91C272.64 182.13 269.4 198.66 260.97 208.05Z" stroke="#000000" stroke-opacity="1.000000" stroke-width="9.000000"/>
</svg>
