<svg width="277.000000" height="279.000000" viewBox="0 0 277 279" fill="none" xmlns="http://www.w3.org/2000/svg" xmlns:xlink="http://www.w3.org/1999/xlink">
	<desc>
			Created with Pixso.
	</desc>
	<defs>
		<filter id="filter_2009_223_dd" x="-0.896484" y="-0.869446" width="277.239258" height="279.412109" filterUnits="userSpaceOnUse" color-interpolation-filters="sRGB">
			<feFlood flood-opacity="0" result="BackgroundImageFix"/>
			<feColorMatrix in="SourceAlpha" type="matrix" values="0 0 0 0 0 0 0 0 0 0 0 0 0 0 0 0 0 0 127 0" result="hardAlpha"/>
			<feOffset dx="2.10832" dy="10.3171"/>
			<feGaussianBlur stdDeviation="0"/>
			<feComposite in2="hardAlpha" operator="out" k2="-1" k3="1"/>
			<feColorMatrix type="matrix" values="0 0 0 0 0 0 0 0 0 0 0 0 0 0 0 0 0 0 1 0"/>
			<feBlend mode="normal" in2="BackgroundImageFix" result="effect_dropShadow_1"/>
			<feBlend mode="normal" in="SourceGraphic" in2="effect_dropShadow_1" result="shape"/>
			<feColorMatrix in="SourceAlpha" type="matrix" values="0 0 0 0 0 0 0 0 0 0 0 0 0 0 0 0 0 0 127 0" result="hardAlpha"/>
			<feOffset dx="-13" dy="-12"/>
			<feGaussianBlur stdDeviation="1.33333"/>
			<feComposite in2="hardAlpha" operator="arithmetic" k2="-1" k3="1"/>
			<feColorMatrix type="matrix" values="0 0 0 0 0 0 0 0 0 0 0 0 0 0 0 0 0 0 0.45 0"/>
			<feBlend mode="normal" in2="shape" result="effect_innerShadow_2"/>
		</filter>
	</defs>
	<g filter="url(#filter_2009_223_dd)">
		<path id="Vector" d="M184.42 -0.82C160.93 -1.64 138 6.44 120.23 21.81C102.46 37.18 91.15 58.71 88.58 82.07C70.77 82.76 53.53 88.56 38.91 98.76C24.29 108.97 12.91 123.15 6.12 139.64C-0.67 156.12 -2.59 174.21 0.6 191.75C3.78 209.29 11.94 225.55 24.09 238.59C36.25 251.63 51.89 260.91 69.16 265.32C86.44 269.74 104.61 269.1 121.53 263.48C138.45 257.87 153.41 247.52 164.62 233.65C175.83 219.79 182.82 203 184.77 185.28C208.84 184.33 231.61 174.09 248.3 156.71C264.98 139.33 274.28 116.16 274.23 92.06C274.18 67.97 264.8 44.83 248.05 27.51C231.31 10.19 208.5 0.04 184.42 -0.82ZM10.35 57.55C10.89 42.36 17.44 28.01 28.55 17.65C39.67 7.29 54.45 1.77 69.64 2.3L91.11 3.06L90.1 31.69L68.63 30.94C61.03 30.67 53.64 33.43 48.09 38.61C42.53 43.79 39.25 50.97 38.99 58.56L38.23 80.03L9.6 79.02L10.35 57.55ZM234.37 208.79L235.12 187.31L263.75 188.32L263 209.8C262.46 224.98 255.91 239.34 244.8 249.7C233.68 260.06 218.9 265.58 203.71 265.04L182.24 264.28L183.25 235.65L204.72 236.41C212.32 236.68 219.71 233.92 225.27 228.74C230.82 223.56 234.1 216.38 234.37 208.79Z" fill="#E84341" fill-opacity="1.000000" fill-rule="evenodd"/>
	</g>
	<path id="Vector" d="M184.77 185.28C208.84 184.33 231.61 174.09 248.3 156.71C264.98 139.33 274.28 116.16 274.23 92.06C274.18 67.97 264.8 44.83 248.05 27.51C231.31 10.19 208.5 0.04 184.42 -0.82C160.93 -1.64 138 6.44 120.23 21.81C102.46 37.18 91.15 58.71 88.58 82.07C70.77 82.76 53.53 88.56 38.91 98.76C24.29 108.97 12.91 123.15 6.12 139.64C-0.67 156.12 -2.59 174.21 0.6 191.75C3.78 209.29 11.94 225.55 24.09 238.59C36.25 251.63 51.89 260.91 69.16 265.32C86.44 269.74 104.61 269.1 121.53 263.48C138.45 257.87 153.41 247.52 164.62 233.65C175.83 219.79 182.82 203 184.77 185.28ZM22.85 39.15Q26.75 30.61 34.18 23.69Q41.61 16.76 50.4 13.48Q59.19 10.19 69.35 10.55L82.57 11.02L82.14 23.15L68.92 22.69Q61.28 22.42 54.66 24.89Q48.05 27.36 42.46 32.57Q36.87 37.78 33.94 44.21Q31.01 50.63 30.74 58.27L30.27 71.49L18.14 71.07L18.6 57.84Q18.96 47.69 22.85 39.15ZM9.89 70.78L10.35 57.55C10.89 42.36 17.44 28.01 28.55 17.65C39.67 7.29 54.45 1.77 69.64 2.3L82.86 2.77L91.11 3.06L90.1 31.69L68.63 30.94C61.03 30.67 53.64 33.43 48.09 38.61C42.53 43.79 39.25 50.97 38.99 58.56L38.23 80.03L9.6 79.02L9.89 70.78ZM105.82 52.68Q113.03 38.95 125.63 28.05Q138.23 17.15 152.86 12Q167.48 6.85 184.13 7.43Q201.23 8.04 215.73 14.49Q230.23 20.95 242.12 33.25Q254.02 45.55 259.98 60.26Q265.94 74.97 265.98 92.08Q266.01 109.19 260.1 123.92Q254.19 138.65 242.34 151Q230.49 163.34 216.02 169.85Q201.54 176.36 184.44 177.03Q181.38 177.15 179.14 179.24Q176.9 181.33 176.56 184.38Q175.2 196.75 170.61 207.77Q166.02 218.79 158.2 228.46Q150.38 238.14 140.56 244.94Q130.74 251.73 118.93 255.65Q107.12 259.57 95.19 259.99Q83.26 260.41 71.21 257.33Q59.15 254.25 48.88 248.16Q38.61 242.06 30.13 232.96Q21.65 223.86 16.29 213.19Q10.94 202.52 8.72 190.27Q6.5 178.03 7.75 166.16Q9.01 154.28 13.75 142.78Q18.49 131.28 25.96 121.96Q33.43 112.65 43.64 105.53Q53.84 98.41 65.16 94.6Q76.47 90.8 88.91 90.31Q91.97 90.19 94.21 88.1Q96.45 86.02 96.79 82.97Q98.61 66.41 105.82 52.68ZM136.25 102.5Q146.11 108.49 154.29 117.26Q162.46 126.03 167.74 136.29Q173.02 146.56 175.41 158.31Q176.01 161.28 178.39 163.15Q180.77 165.03 183.8 164.91Q194.46 164.52 204.18 161.28Q213.89 158.03 222.65 151.94Q231.41 145.85 237.83 137.87Q244.25 129.89 248.33 120.02Q252.41 110.16 253.49 99.98Q254.58 89.79 252.68 79.29Q250.78 68.79 246.19 59.64Q241.6 50.48 234.33 42.67Q227.05 34.86 218.24 29.64Q209.43 24.42 199.09 21.78Q188.75 19.15 178.51 19.52Q168.28 19.88 158.15 23.26Q148.03 26.63 139.62 32.47Q131.2 38.31 124.51 46.62Q117.81 54.93 113.89 64.39Q109.97 73.85 108.83 84.47Q108.51 87.48 110.21 89.98Q111.91 92.49 114.83 93.3Q126.38 96.51 136.25 102.5ZM182.43 128.74Q176.13 116.48 166.37 106.01Q156.6 95.53 144.82 88.38Q136.13 83.1 126.33 79.63Q127.37 75.02 129.15 70.72Q132.18 63.4 137.36 56.98Q142.54 50.55 149.04 46.04Q155.54 41.52 163.37 38.92Q171.2 36.31 179.11 36.03Q187.02 35.74 195.01 37.78Q203.01 39.82 209.81 43.85Q216.62 47.89 222.25 53.93Q227.87 59.96 231.42 67.04Q234.97 74.12 236.44 82.23Q237.91 90.35 237.07 98.22Q236.23 106.09 233.07 113.72Q229.92 121.34 224.96 127.51Q220 133.68 213.23 138.39Q206.45 143.1 198.95 145.61Q194.53 147.08 189.86 147.8Q187.09 137.78 182.43 128.74ZM117.74 243.44Q130.77 238.57 141.79 228.3Q152.81 218.04 158.58 205.38Q164.35 192.72 164.88 177.67Q165.41 162.62 160.55 149.58Q155.68 136.55 145.41 125.53Q135.14 114.51 122.48 108.74Q109.83 102.97 94.77 102.44Q79.72 101.91 66.69 106.77Q53.66 111.64 42.64 121.91Q31.62 132.18 25.85 144.84Q20.07 157.49 19.54 172.55Q19.01 187.6 23.88 200.63Q28.75 213.66 39.02 224.68Q49.28 235.7 61.94 241.47Q74.6 247.25 89.65 247.78Q104.7 248.31 117.74 243.44ZM143.51 198.51Q139.05 208.29 130.53 216.23Q122.02 224.16 111.94 227.93Q101.87 231.69 90.23 231.28Q78.6 230.87 68.81 226.41Q59.03 221.94 51.09 213.43Q43.16 204.91 39.39 194.84Q35.63 184.76 36.04 173.13Q36.45 161.49 40.91 151.71Q45.38 141.92 53.89 133.99Q62.41 126.05 72.48 122.29Q82.56 118.52 94.19 118.93Q105.83 119.34 115.61 123.81Q125.4 128.27 133.33 136.79Q141.27 145.3 145.03 155.38Q148.8 165.45 148.39 177.09Q147.98 188.72 143.51 198.51ZM235.12 187.31L234.83 195.56L234.37 208.79C234.1 216.38 230.82 223.56 225.27 228.74C219.71 233.92 212.32 236.68 204.72 236.41L191.5 235.94L183.25 235.65L182.24 264.28L203.71 265.04C218.9 265.58 233.68 260.06 244.8 249.7C255.91 239.34 262.46 224.98 263 209.8L263.75 188.32L235.12 187.31ZM243.08 195.85L242.61 209.08Q242.34 216.71 239.41 223.14Q236.48 229.56 230.89 234.77Q225.3 239.99 218.69 242.46Q212.07 244.93 204.43 244.66L191.21 244.19L190.78 256.33L204 256.79Q214.16 257.15 222.95 253.87Q231.74 250.58 239.17 243.66Q246.6 236.73 250.5 228.19Q254.39 219.66 254.75 209.5L255.21 196.28L243.08 195.85Z" fill="#000000" fill-opacity="1.000000" fill-rule="evenodd"/>
</svg>
